<svg xmlns="http://www.w3.org/2000/svg" viewBox="0 0 337.5 58.87" width="337.5" height="58.87"><defs><style>.cls-1{fill:#9aca3c;}.cls-2{fill:#333;}.cls-3{fill:#231f20;}</style></defs><title>Asset 1</title><g id="Layer_2" data-name="Layer 2"><g id="Layer_1-2" data-name="Layer 1"><path class="cls-1" d="M15.61,0h-6L9.46.19a39.69,39.69,0,0,0-7,13.37A53.4,53.4,0,0,0,0,29.58,47.44,47.44,0,0,0,9.44,58.67l.15.2h6l-.53-.78A50.13,50.13,0,0,1,6,29.52a49.19,49.19,0,0,1,9-28.74Zm47.1,13.55a39.71,39.71,0,0,0-7-13.37L55.56,0h-6l.55.78a49.19,49.19,0,0,1,9,28.74,50.13,50.13,0,0,1-9,28.56l-.53.78h6l.15-.2a47.43,47.43,0,0,0,9.44-29.08,53.41,53.41,0,0,0-2.46-16Z"/><path class="cls-2" d="M123,14.49c6.82,0,9.28,4.73,9.28,11V39.29h4.1V45H118.85V39.29h2.78V26.34c0-1.89-.38-3.35-1.26-4.23a3.19,3.19,0,0,0-2.4-.88c-2.4,0-4.54,2.71-4.54,6.31V39.29h2.65V45H100V39.29h2.78V26.34c0-1.89-.38-3.35-1.26-4.23a3.19,3.19,0,0,0-2.4-.88c-2.4,0-4.54,2.71-4.54,6.31V39.29h2.65V45H79.72V39.29h4.16V20.92H79.72V15.17H93.8v8c1.58-4.73,4.67-8.65,10.35-8.65,5.43,0,8,3.28,8.77,8C114.56,18,117.59,14.49,123,14.49Z"/><path class="cls-2" d="M138.73,37.71a7.21,7.21,0,0,1,2.08-5c1.77-1.77,4.73-3.22,12.94-4.29,3.35-.44,3.47-.5,3.47-1.07V24.83c0-3.79-1.77-5.24-5.24-5.24a8.75,8.75,0,0,0-3.35.63A4,4,0,0,1,150,23.51c0,2.33-2.15,4-4.86,4-3.53,0-5.18-2.21-5.18-4.8,0-5.74,7.32-8.27,14.89-8.27,9.91,0,12.81,4.8,12.81,11V38.4c0,1.39.63,1.64,1.39,1.64s1.32-.63,1.83-3.16l3.47.88c-1.07,5.49-3.47,8-8.33,8-4,0-6.94-2-7.64-6.75h-.32c-2.08,5.11-5.43,6.75-10,6.75C142.83,45.72,138.73,42.69,138.73,37.71ZM157.22,33V31c-.57.13-1.26.19-2.84.5-3.79.69-4.92,2.4-4.92,4.8a3.27,3.27,0,0,0,3.6,3.47c2.77,0,4.16-2.71,4.16-6.75Z"/><path class="cls-2" d="M188.78,7.41v8.07h9.47v5.43h-9.47v14c0,2.65.95,4.23,2.9,4.23s2.65-1.45,3.72-5.81l4.16,1c-1.26,7.89-4.29,11.36-11,11.36-7.07,0-10.48-3.53-10.48-11.17V20.92h-5V15.49h5.36V8.67Z"/><path class="cls-2" d="M215.66,7.41v8.07h9.47v5.43h-9.47v14c0,2.65.95,4.23,2.9,4.23s2.65-1.45,3.72-5.81l4.17,1c-1.26,7.89-4.29,11.36-11,11.36-7.07,0-10.48-3.53-10.48-11.17V20.92h-5V15.49h5.36V8.67Z"/><path class="cls-2" d="M239.77,31.65c.38,6.75,3,8.52,7.38,8.52,3.47,0,5.55-1.45,6.69-5h5.68c-.95,6.18-4.92,10.6-14,10.6-10.23,0-16.66-6-16.66-15.34,0-9.15,6.88-15.9,16.09-15.9,10.54,0,15.52,6.75,15,17.17H239.77Zm0-4.36h9.85c-.25-6.31-1.83-8.14-4.8-8.14S240.09,21.11,239.77,27.29Z"/><path class="cls-2" d="M263.37,39.29h4.17V20.92h-4.17V15.17h14.07v8c1.89-5.74,5.18-8.71,9.53-8.71a6.2,6.2,0,0,1,6.37,6q0,.08,0,.16c0,3.53-2.4,6-5.43,6s-5.3-1.7-5.3-4.8c0-.06.06-.19.06-.25-1.2.25-3.35,1.58-4.48,5.11V39.29h5.49V45H263.37Z"/><path class="cls-2" d="M295.11,34.74h5.3c3,3.72,6.63,6.18,10,6.18,2.33,0,3.41-.95,3.41-2.52,0-2.14-1.45-3-7.45-4.42-7.13-1.77-10.86-4-10.86-9.59s4.23-9.91,11.11-9.91a11.71,11.71,0,0,1,9.09,3.72l1.14-3.6h5.43V24.83H317c-2.46-3.28-5.93-5.68-8.84-5.68-2.52,0-3.35,1.07-3.35,2.53,0,2,1.52,2.59,7.26,4,6.37,1.64,11.23,3.72,11.23,10,0,5.43-4,10-11.55,10a13.06,13.06,0,0,1-10.1-4.23l-1.14,4.1h-5.36V34.74Z"/><path class="cls-1" d="M49,35.84,47,34.74l-.42-.22-.12.21-.12.21c-2.42,4.31-4,5.21-4.91,5.21-.64,0-1.22-.79-1.81-2.49l-3.3-9.72q.86-1.35,1.56-2.48l.12-.19c1.65-2.65,3.08-4.94,3.73-4.94a.29.29,0,0,1,.17.08c.88,1.93,1.74,3.41,4.19,3.41a4.39,4.39,0,0,0,4.36-4.43q0-.14,0-.29c0-2.78-2.09-4.72-5.08-4.72-4.05,0-7,3.38-10.59,9.25l-.14-.42c-1.62-5.13-2.79-8.83-7.36-8.83-4,0-7.33,3.18-9.53,9.21l-.07.18-.07.18.16.11.16.1,2,1.29.24.16.25.16.11-.27.11-.27C22,21.92,23,20.44,24,20.44c.61,0,1.06,1.15,1.5,2.44L29,33c-3.72,6.52-5,7.23-5.42,7.23a.44.44,0,0,1-.23-.2l-.2-.45c-.76-1.78-1.49-3.45-4.17-3.45a4.44,4.44,0,0,0-4.41,4.46q0,.1,0,.2c0,3,2.34,5.08,5.7,5.08,4.41,0,6.94-3.33,10.18-8.45l.09.26c1.85,5.28,2.86,8.19,7.21,8.19,4.14,0,8.34-3.4,11.53-9.33l.12-.21.12-.22L49.26,36Z"/><path class="cls-3" d="M333.73,7a3.78,3.78,0,1,1-.05,0Zm0,7a3.24,3.24,0,1,0-3.14-3.34s0,.05,0,.08a3.14,3.14,0,0,0,3,3.26Zm-1.48-5.47H334c1.06,0,1.55.42,1.55,1.27a1.14,1.14,0,0,1-1.07,1.21h-.1l1.27,2h-.74l-1.21-1.91h-.73V13h-.69Zm.69,2h.72c.61,0,1.17,0,1.17-.73s-.51-.68-1-.68h-.92v1.41Z"/></g></g></svg>
